<svg xmlns="http://www.w3.org/2000/svg" aria-hidden="true" focusable="false" style="position:absolute;width:0;height:0;overflow:hidden">
  <defs>
    <linearGradient id="gFurRoux" x1="0" y1="0" x2="0" y2="1"><stop offset="0" stop-color="#F7C494"></stop><stop offset="1" stop-color="#EFA76C"></stop></linearGradient>
    <linearGradient id="gFurGris" x1="0" y1="0" x2="0" y2="1"><stop offset="0" stop-color="#D8CFC4"></stop><stop offset="1" stop-color="#C2B6A8"></stop></linearGradient>
    <linearGradient id="gFurNoir" x1="0" y1="0" x2="0" y2="1"><stop offset="0" stop-color="#6E655F"></stop><stop offset="1" stop-color="#544C48"></stop></linearGradient>
    <linearGradient id="gFurBlanc" x1="0" y1="0" x2="0" y2="1"><stop offset="0" stop-color="#FDF8EC"></stop><stop offset="1" stop-color="#F3E8D2"></stop></linearGradient>
    <linearGradient id="gRice" x1="0" y1="0" x2="0" y2="1"><stop offset="0" stop-color="#FFFFFF"></stop><stop offset="1" stop-color="#F3EBD8"></stop></linearGradient>
    <linearGradient id="gSaumon" x1="0" y1="0" x2="0" y2="1"><stop offset="0" stop-color="#F7A483"></stop><stop offset="1" stop-color="#ED8560"></stop></linearGradient>
    <linearGradient id="gTamago" x1="0" y1="0" x2="0" y2="1"><stop offset="0" stop-color="#F7D97E"></stop><stop offset="1" stop-color="#EFC75B"></stop></linearGradient>
    <linearGradient id="gNori" x1="0" y1="0" x2="0" y2="1"><stop offset="0" stop-color="#57634F"></stop><stop offset="1" stop-color="#3F4A3B"></stop></linearGradient>
    <linearGradient id="gNoriMuted" x1="0" y1="0" x2="0" y2="1"><stop offset="0" stop-color="#7C8574"></stop><stop offset="1" stop-color="#636D5C"></stop></linearGradient>

    
    <symbol id="ns-nigiri" viewBox="0 0 96 92">
      <ellipse cx="48" cy="84" rx="40" ry="7" fill="#fff"></ellipse><ellipse cx="48" cy="83" rx="32" ry="4.5" fill="#F3ECDD"></ellipse>
      <path d="M76 64 q16 -4 12 -18 q-2 -8 -11 -9" fill="none" stroke="#E09659" stroke-width="5.5" stroke-linecap="round"></path>
      <rect x="16" y="60" width="58" height="20" rx="10" fill="url(#gRice)" stroke="#EBDFC6"></rect>
      <path d="M24 67 q3 -2.5 6 0 M35 73 q3 -2.5 6 0 M47 67 q3 -2.5 6 0 M58 72 q3 -2.5 6 0" fill="none" stroke="#E6D9BC" stroke-width="1.6" stroke-linecap="round"></path>
      <rect x="42" y="49" width="40" height="13" rx="6.5" fill="url(#gSaumon)"></rect>
      <path d="M49 55 q4 -3 8 0 M59 55 q4 -3 8 0 M69 55 q4 -3 8 0" fill="none" stroke="#FBD0BC" stroke-width="2" stroke-linecap="round"></path>
      <path d="M14 24 L23 4 L33 22 Z" fill="url(#gFurRoux)"></path><path d="M19 19 L23 10 L28 18 Z" fill="#F6B9AE"></path>
      <path d="M47 22 L57 4 L66 24 Z" fill="url(#gFurRoux)"></path><path d="M52 18 L57 10 L61 19 Z" fill="#F6B9AE"></path>
      <ellipse cx="40" cy="42" rx="27" ry="23" fill="url(#gFurRoux)"></ellipse>
      <path d="M34 25 q1 4 0 7 M40 24 q1 5 0 9 M46 25 q1 4 0 7" fill="none" stroke="#DE9257" stroke-width="3" stroke-linecap="round"></path>
      <path d="M16 40 q4 1 6 3 M64 40 q-4 1 -6 3" fill="none" stroke="#DE9257" stroke-width="2.4" stroke-linecap="round"></path>
      <path d="M27 41 q4.5 -6 9 0 M44 41 q4.5 -6 9 0" fill="none" stroke="#43322A" stroke-width="3" stroke-linecap="round"></path>
      <path d="M38 46 h5 l-2.5 3.5 Z" fill="#E2766B"></path>
      <path d="M35 51 q5.5 7 11 0 Z" fill="#8A5240"></path><ellipse cx="40.5" cy="53" rx="3" ry="1.8" fill="#F0958D"></ellipse>
      <ellipse cx="20" cy="49" rx="5" ry="3.2" fill="#F0958D" opacity=".55"></ellipse><ellipse cx="60" cy="49" rx="5" ry="3.2" fill="#F0958D" opacity=".55"></ellipse>
      <path d="M12 43 q-6 -2 -10 -4 M12 47 q-6 0 -10 1 M68 43 q6 -2 10 -4 M68 47 q6 0 10 1" fill="none" stroke="rgba(122,82,64,.6)" stroke-width="1.6" stroke-linecap="round"></path>
      <ellipse cx="30" cy="63" rx="7" ry="4.5" fill="url(#gFurRoux)" stroke="#E09659"></ellipse><path d="M27.5 61.5 v3 M31 61.5 v3" stroke="#E09659" stroke-width="1"></path>
      <ellipse cx="47" cy="63" rx="7" ry="4.5" fill="url(#gFurRoux)" stroke="#E09659"></ellipse><path d="M44.5 61.5 v3 M48 61.5 v3" stroke="#E09659" stroke-width="1"></path>
    </symbol>

    
    <symbol id="ns-maki" viewBox="0 0 96 92">
      <ellipse cx="46" cy="85" rx="38" ry="6.5" fill="#fff"></ellipse><ellipse cx="46" cy="84" rx="30" ry="4" fill="#F3ECDD"></ellipse>
      <path d="M16 66 q-14 -4 -10 -17 q2 -7 10 -8" fill="none" stroke="#E09659" stroke-width="5.5" stroke-linecap="round"></path>
      <rect x="16" y="48" width="60" height="34" rx="13" fill="url(#gNori)"></rect>
      <ellipse cx="46" cy="50" rx="27" ry="8.5" fill="url(#gRice)" stroke="#EBDFC6"></ellipse>
      <path d="M28 49 q3 -2 6 0 M56 49 q3 -2 6 0" fill="none" stroke="#E6D9BC" stroke-width="1.5" stroke-linecap="round"></path>
      <circle cx="46" cy="50" r="5.5" fill="#8FBF6B"></circle><circle cx="46" cy="50" r="2.4" fill="#6FA34C"></circle>
      <path d="M18 22 L26 3 L36 20 Z" fill="#F0A468"></path><path d="M23 17 L26 9 L31 16 Z" fill="#F6B9AE"></path>
      <path d="M52 20 L62 3 L70 22 Z" fill="url(#gFurBlanc)"></path><path d="M57 16 L62 9 L65 17 Z" fill="#F6B9AE"></path>
      <ellipse cx="44" cy="32" rx="25" ry="21" fill="url(#gFurBlanc)"></ellipse>
      <path d="M52 13 q10 1 14 9 q-6 4 -14 3 Z" fill="#F0A468"></path>
      <ellipse cx="28" cy="16" rx="7" ry="5" fill="#6B635E" opacity=".9"></ellipse>
      <path d="M32 31 q4.5 -6 9 0 M50 31 q4.5 -6 9 0" fill="none" stroke="#43322A" stroke-width="3" stroke-linecap="round"></path>
      <path d="M42 36 h5 l-2.5 3.5 Z" fill="#E2766B"></path>
      <path d="M39 41 q5.5 7 11 0 Z" fill="#8A5240"></path><ellipse cx="44.5" cy="43" rx="3" ry="1.8" fill="#F0958D"></ellipse>
      <ellipse cx="25" cy="39" rx="5" ry="3.2" fill="#F0958D" opacity=".55"></ellipse><ellipse cx="63" cy="39" rx="5" ry="3.2" fill="#F0958D" opacity=".55"></ellipse>
      <path d="M17 33 q-6 -2 -10 -4 M17 37 q-6 0 -10 1 M71 33 q6 -2 10 -4 M71 37 q6 0 10 1" fill="none" stroke="rgba(122,82,64,.55)" stroke-width="1.6" stroke-linecap="round"></path>
      <ellipse cx="34" cy="50" rx="6.5" ry="4.2" fill="url(#gFurBlanc)" stroke="#E3D3B4"></ellipse><path d="M31.5 48.5 v3 M35 48.5 v3" stroke="#E3D3B4" stroke-width="1"></path>
      <ellipse cx="56" cy="50" rx="6.5" ry="4.2" fill="#F0A468" stroke="#DE9257"></ellipse><path d="M53.5 48.5 v3 M57 48.5 v3" stroke="#DE9257" stroke-width="1"></path>
    </symbol>

    
    <symbol id="ns-tamago" viewBox="0 0 96 92">
      <ellipse cx="48" cy="84" rx="40" ry="7" fill="#fff"></ellipse><ellipse cx="48" cy="83" rx="32" ry="4.5" fill="#F3ECDD"></ellipse>
      <path d="M76 64 q16 -4 12 -18 q-2 -8 -11 -9" fill="none" stroke="#A6988A" stroke-width="5.5" stroke-linecap="round"></path>
      <rect x="16" y="60" width="58" height="20" rx="10" fill="url(#gRice)" stroke="#EBDFC6"></rect>
      <path d="M24 67 q3 -2.5 6 0 M35 73 q3 -2.5 6 0 M47 67 q3 -2.5 6 0 M58 72 q3 -2.5 6 0" fill="none" stroke="#E6D9BC" stroke-width="1.6" stroke-linecap="round"></path>
      <rect x="42" y="48" width="40" height="14" rx="7" fill="url(#gTamago)"></rect>
      <path d="M50 55 h24" fill="none" stroke="#F9E7A8" stroke-width="2" stroke-linecap="round"></path>
      <rect x="58" y="45" width="9" height="22" rx="2.5" fill="url(#gNori)"></rect>
      <path d="M14 24 L23 4 L33 22 Z" fill="url(#gFurGris)"></path><path d="M19 19 L23 10 L28 18 Z" fill="#F6B9AE"></path>
      <path d="M47 22 L57 4 L66 24 Z" fill="url(#gFurGris)"></path><path d="M52 18 L57 10 L61 19 Z" fill="#F6B9AE"></path>
      <ellipse cx="40" cy="42" rx="27" ry="23" fill="url(#gFurGris)"></ellipse>
      <path d="M34 25 q1 4 0 7 M40 24 q1 5 0 9 M46 25 q1 4 0 7" fill="none" stroke="#A6988A" stroke-width="3" stroke-linecap="round"></path>
      <path d="M27 41 q4.5 -6 9 0 M44 41 q4.5 -6 9 0" fill="none" stroke="#43322A" stroke-width="3" stroke-linecap="round"></path>
      <path d="M38 46 h5 l-2.5 3.5 Z" fill="#E2766B"></path>
      <path d="M35 51 q5.5 7 11 0 Z" fill="#8A5240"></path><ellipse cx="40.5" cy="53" rx="3" ry="1.8" fill="#F0958D"></ellipse>
      <ellipse cx="20" cy="49" rx="5" ry="3.2" fill="#F0958D" opacity=".55"></ellipse><ellipse cx="60" cy="49" rx="5" ry="3.2" fill="#F0958D" opacity=".55"></ellipse>
      <path d="M12 43 q-6 -2 -10 -4 M12 47 q-6 0 -10 1 M68 43 q6 -2 10 -4 M68 47 q6 0 10 1" fill="none" stroke="rgba(107,99,85,.6)" stroke-width="1.6" stroke-linecap="round"></path>
      <ellipse cx="30" cy="63" rx="7" ry="4.5" fill="url(#gFurGris)" stroke="#A6988A"></ellipse><path d="M27.5 61.5 v3 M31 61.5 v3" stroke="#A6988A" stroke-width="1"></path>
      <ellipse cx="47" cy="63" rx="7" ry="4.5" fill="url(#gFurGris)" stroke="#A6988A"></ellipse><path d="M44.5 61.5 v3 M48 61.5 v3" stroke="#A6988A" stroke-width="1"></path>
    </symbol>

    
    <symbol id="ns-temaki" viewBox="0 0 96 100">
      <ellipse cx="46" cy="93" rx="38" ry="6.5" fill="#fff"></ellipse><ellipse cx="46" cy="92" rx="30" ry="4" fill="#F3ECDD"></ellipse>
      <path d="M70 62 q15 -3 13 -16 q-1 -8 -10 -10" fill="none" stroke="#544C48" stroke-width="5.5" stroke-linecap="round"></path>
      <path d="M20 48 L72 48 L49 90 Z" fill="url(#gNori)" stroke="url(#gNori)" stroke-width="4" stroke-linejoin="round"></path>
      <ellipse cx="46" cy="48" rx="27" ry="10" fill="url(#gRice)" stroke="#EBDFC6"></ellipse>
      <path d="M30 47 q3 -2 6 0 M44 51 q3 -2 6 0 M56 46 q3 -2 6 0" fill="none" stroke="#E6D9BC" stroke-width="1.5" stroke-linecap="round"></path>
      <path d="M20 22 L28 3 L38 20 Z" fill="url(#gFurNoir)"></path><path d="M25 17 L28 9 L33 16 Z" fill="#C99B94"></path>
      <path d="M52 20 L62 3 L70 22 Z" fill="url(#gFurNoir)"></path><path d="M57 16 L62 9 L65 17 Z" fill="#C99B94"></path>
      <ellipse cx="44" cy="30" rx="24" ry="20" fill="url(#gFurNoir)"></ellipse>
      <path d="M38 14 q1 4 0 6 M44 13 q1 5 0 8 M50 14 q1 4 0 6" fill="none" stroke="#453E3B" stroke-width="2.6" stroke-linecap="round"></path>
      <ellipse cx="44" cy="37" rx="10" ry="7" fill="#8A807A"></ellipse>
      <ellipse cx="34" cy="29" rx="5" ry="6" fill="#F5D26B"></ellipse>
      <ellipse cx="54" cy="29" rx="5" ry="6" fill="#F5D26B"></ellipse>
      <circle cx="34" cy="29" r="2.4" fill="#2E2723"></circle><circle cx="54" cy="29" r="2.4" fill="#2E2723"></circle>
      <circle cx="35.4" cy="27.4" r="1.1" fill="#fff"></circle><circle cx="55.4" cy="27.4" r="1.1" fill="#fff"></circle>
      <path d="M41.5 34.5 h5 l-2.5 3.5 Z" fill="#E2766B"></path>
      <path d="M38 39.5 q3 4 6 0 q3 4 6 0" fill="none" stroke="#3B332F" stroke-width="2" stroke-linecap="round"></path>
      <ellipse cx="26" cy="36" rx="4.5" ry="3" fill="#E58F86" opacity=".6"></ellipse><ellipse cx="62" cy="36" rx="4.5" ry="3" fill="#E58F86" opacity=".6"></ellipse>
      <path d="M18 31 q-6 -2 -10 -4 M18 35 q-6 0 -10 1 M70 31 q6 -2 10 -4 M70 35 q6 0 10 1" fill="none" stroke="rgba(255,252,245,.55)" stroke-width="1.6" stroke-linecap="round"></path>
      <ellipse cx="34" cy="49" rx="6.5" ry="4.2" fill="url(#gFurNoir)" stroke="#453E3B"></ellipse><path d="M31.5 47.5 v3 M35 47.5 v3" stroke="#8A807A" stroke-width="1"></path>
      <ellipse cx="56" cy="49" rx="6.5" ry="4.2" fill="url(#gFurNoir)" stroke="#453E3B"></ellipse><path d="M53.5 47.5 v3 M57 47.5 v3" stroke="#8A807A" stroke-width="1"></path>
    </symbol>

    
    <symbol id="ns-onigiri" viewBox="0 0 96 88">
      <ellipse cx="48" cy="81" rx="38" ry="6.5" fill="#F1EBDD"></ellipse>
      <path d="M20 76 q12 6 26 4" fill="none" stroke="#E3CFA6" stroke-width="5" stroke-linecap="round"></path>
      <path d="M24 18 L33 2 L41 16 Z" fill="#F1E1C6"></path><path d="M29 14 L33 7 L37 13 Z" fill="#F2C4BC"></path>
      <path d="M55 16 L63 2 L72 18 Z" fill="#F1E1C6"></path><path d="M60 13 L63 7 L67 14 Z" fill="#F2C4BC"></path>
      <path d="M48 6 Q52 6 54 10 L76 62 q2 6 -4 8 L24 70 q-6 -2 -4 -8 L42 10 Q44 6 48 6 Z" fill="url(#gRice)" stroke="#EBDFC6"></path>
      <path d="M34 58 q3 -2.5 6 0 M56 58 q3 -2.5 6 0 M45 64 q3 -2.5 6 0" fill="none" stroke="#E6D9BC" stroke-width="1.5" stroke-linecap="round"></path>
      <rect x="36" y="62" width="24" height="16" rx="3" fill="#8B917F"></rect>
      <ellipse cx="38" cy="26" rx="5" ry="4" fill="#E3D2BC"></ellipse>
      <path d="M31 34 q4 4.5 8 0 M57 34 q4 4.5 8 0" fill="none" stroke="#6B6355" stroke-width="2.6" stroke-linecap="round"></path>
      <path d="M45.5 40 h5 l-2.5 3.5 Z" fill="#C9A29A"></path>
      <path d="M42 45 q3 4 6 0 q3 4 6 0" fill="none" stroke="#8B8272" stroke-width="2" stroke-linecap="round"></path>
      <ellipse cx="30" cy="42" rx="4.5" ry="3" fill="#E8C4BC" opacity=".7"></ellipse><ellipse cx="66" cy="42" rx="4.5" ry="3" fill="#E8C4BC" opacity=".7"></ellipse>
      <path d="M24 37 q-6 -2 -9 -4 M24 41 q-6 0 -9 1 M72 37 q6 -2 9 -4 M72 41 q6 0 9 1" fill="none" stroke="rgba(107,99,85,.45)" stroke-width="1.5" stroke-linecap="round"></path>
    </symbol>

    
    <symbol id="ns-maki-dodo" viewBox="0 0 96 92">
      <ellipse cx="46" cy="85" rx="38" ry="6.5" fill="#F1EBDD"></ellipse>
      <path d="M74 62 q3 12 -2 18" fill="none" stroke="#C4B49E" stroke-width="5" stroke-linecap="round"></path>
      <rect x="16" y="48" width="60" height="34" rx="13" fill="url(#gNoriMuted)"></rect>
      <ellipse cx="46" cy="50" rx="27" ry="8.5" fill="#F3EDE0" stroke="#E5DCC8"></ellipse>
      <path d="M20 24 L28 6 L37 22 Z" fill="url(#gFurGris)"></path><path d="M25 19 L28 11 L32 18 Z" fill="#E0C0BA"></path>
      <path d="M52 22 L61 6 L69 24 Z" fill="url(#gFurGris)"></path><path d="M57 18 L61 11 L64 19 Z" fill="#E0C0BA"></path>
      <ellipse cx="44" cy="33" rx="24" ry="20" fill="url(#gFurGris)"></ellipse>
      <path d="M39 16 q1 4 0 6 M44 15 q1 5 0 8 M49 16 q1 4 0 6" fill="none" stroke="#A6988A" stroke-width="2.6" stroke-linecap="round"></path>
      <path d="M30 33 q4 4.5 8 0 M50 33 q4 4.5 8 0" fill="none" stroke="#6B6355" stroke-width="2.6" stroke-linecap="round"></path>
      <path d="M41.5 38 h5 l-2.5 3.5 Z" fill="#C9A29A"></path>
      <path d="M38 43 q3 4 6 0 q3 4 6 0" fill="none" stroke="#8B8272" stroke-width="2" stroke-linecap="round"></path>
      <ellipse cx="26" cy="41" rx="4.5" ry="3" fill="#E8C4BC" opacity=".7"></ellipse><ellipse cx="62" cy="41" rx="4.5" ry="3" fill="#E8C4BC" opacity=".7"></ellipse>
      <path d="M18 35 q-6 -2 -9 -4 M18 39 q-6 0 -9 1 M70 35 q6 -2 9 -4 M70 39 q6 0 9 1" fill="none" stroke="rgba(107,99,85,.45)" stroke-width="1.5" stroke-linecap="round"></path>
      <ellipse cx="34" cy="50" rx="6.5" ry="4.2" fill="url(#gFurGris)" stroke="#A6988A"></ellipse>
      <ellipse cx="56" cy="50" rx="6.5" ry="4.2" fill="url(#gFurGris)" stroke="#A6988A"></ellipse>
    </symbol>

    
    <symbol id="ns-chef" viewBox="0 0 100 112">
      <path d="M84 80 q16 -8 10 -22 q-3 -8 -12 -8" fill="none" stroke="#E09659" stroke-width="6" stroke-linecap="round"></path>
      <path d="M16 36 L27 12 L38 34 Z" fill="url(#gFurRoux)"></path><path d="M22 30 L27 19 L32 29 Z" fill="#F6B9AE"></path>
      <path d="M62 34 L73 12 L84 36 Z" fill="url(#gFurRoux)"></path><path d="M68 29 L73 19 L78 30 Z" fill="#F6B9AE"></path>
      <circle cx="38" cy="12" r="8" fill="#fff"></circle><circle cx="50" cy="9" r="9" fill="#fff"></circle><circle cx="62" cy="12" r="8" fill="#fff"></circle>
      <rect x="34" y="12" width="32" height="15" rx="4" fill="#fff" stroke="#EEE3D2"></rect>
      <rect x="34" y="25" width="32" height="5" rx="2" fill="#C25A38"></rect>
      <ellipse cx="50" cy="82" rx="21" ry="13" fill="url(#gFurRoux)"></ellipse>
      <rect x="18" y="88" width="64" height="19" rx="9.5" fill="url(#gRice)" stroke="#EBDFC6"></rect>
      <path d="M26 94 q3 -2.5 6 0 M38 100 q3 -2.5 6 0 M52 94 q3 -2.5 6 0 M64 99 q3 -2.5 6 0" fill="none" stroke="#E6D9BC" stroke-width="1.6" stroke-linecap="round"></path>
      <rect x="42" y="86" width="16" height="26" rx="4" fill="url(#gNori)"></rect>
      <ellipse cx="50" cy="53" rx="30" ry="25" fill="url(#gFurRoux)"></ellipse>
      <path d="M44 33 q1 5 0 8 M50 32 q1 6 0 10 M56 33 q1 5 0 8" fill="none" stroke="#DE9257" stroke-width="3" stroke-linecap="round"></path>
      <path d="M23 50 q4 1 6 3 M77 50 q-4 1 -6 3" fill="none" stroke="#DE9257" stroke-width="2.4" stroke-linecap="round"></path>
      <ellipse cx="38" cy="53" rx="5" ry="6" fill="#43322A"></ellipse>
      <ellipse cx="62" cy="53" rx="5" ry="6" fill="#43322A"></ellipse>
      <circle cx="40" cy="51" r="1.8" fill="#fff"></circle><circle cx="36.5" cy="55" r="1" fill="#fff"></circle>
      <circle cx="64" cy="51" r="1.8" fill="#fff"></circle><circle cx="60.5" cy="55" r="1" fill="#fff"></circle>
      <path d="M47 61 h6 l-3 4 Z" fill="#E2766B"></path>
      <path d="M42 67 q4 5 8 0 q4 5 8 0" fill="none" stroke="#7A5240" stroke-width="2.2" stroke-linecap="round"></path>
      <ellipse cx="26" cy="63" rx="5.5" ry="3.5" fill="#F0958D" opacity=".55"></ellipse><ellipse cx="74" cy="63" rx="5.5" ry="3.5" fill="#F0958D" opacity=".55"></ellipse>
      <path d="M19 55 q-8 -2 -13 -5 M19 60 q-8 0 -13 1 M81 55 q8 -2 13 -5 M81 60 q8 0 13 1" fill="none" stroke="rgba(122,82,64,.6)" stroke-width="1.8" stroke-linecap="round"></path>
      <ellipse cx="36" cy="90" rx="8" ry="5" fill="url(#gFurRoux)" stroke="#E09659"></ellipse><path d="M33 88 v3.5 M37 88 v3.5" stroke="#E09659" stroke-width="1"></path>
      <ellipse cx="64" cy="90" rx="8" ry="5" fill="url(#gFurRoux)" stroke="#E09659"></ellipse><path d="M61 88 v3.5 M65 88 v3.5" stroke="#E09659" stroke-width="1"></path>
    </symbol>
  </defs>
</svg>
